<?xml version="1.0" encoding="UTF-8" standalone="no"?>
<!-- Created with Inkscape (http://www.inkscape.org/) -->

<svg
   version="1.1"
   id="svg1"
   width="1730.2686"
   height="1730.2695"
   viewBox="0 0 1730.2686 1730.2695"
   sodipodi:docname="logo-2024.svg"
   inkscape:version="1.3.2 (091e20e, 2023-11-25)"
   xml:space="preserve"
   xmlns:inkscape="http://www.inkscape.org/namespaces/inkscape"
   xmlns:sodipodi="http://sodipodi.sourceforge.net/DTD/sodipodi-0.dtd"
   xmlns="http://www.w3.org/2000/svg"
   xmlns:svg="http://www.w3.org/2000/svg"><defs
     id="defs1"><linearGradient
       id="swatch1"
       inkscape:swatch="solid"><stop
         style="stop-color:#8a6f91;stop-opacity:1;"
         offset="0"
         id="stop1" /></linearGradient><linearGradient
       id="swatch21"
       inkscape:swatch="solid"><stop
         style="stop-color:#1d262e;stop-opacity:1;"
         offset="0"
         id="stop21" /></linearGradient></defs><sodipodi:namedview
     id="namedview1"
     pagecolor="#ffffff"
     bordercolor="#000000"
     borderopacity="0.25"
     inkscape:showpageshadow="2"
     inkscape:pageopacity="0.0"
     inkscape:pagecheckerboard="0"
     inkscape:deskcolor="#d1d1d1"
     inkscape:zoom="0.019445842"
     inkscape:cx="7122.3452"
     inkscape:cy="11442.035"
     inkscape:current-layer="g1" /><g
     inkscape:groupmode="layer"
     inkscape:label="Image"
     id="g1"
     transform="translate(-9205.9219,-3660.7734)"><rect
       style="font-variation-settings:normal;vector-effect:none;fill:#fafdfd;fill-opacity:1;fill-rule:evenodd;stroke:none;stroke-width:400;stroke-linecap:butt;stroke-linejoin:miter;stroke-miterlimit:4;stroke-dasharray:none;stroke-dashoffset:0;stroke-opacity:1;-inkscape-stroke:none;stop-color:#000000"
       id="rect32"
       width="1843.8605"
       height="1843.8605"
       x="9149.126"
       y="-5447.8384"
       transform="scale(1,-1)"
       inkscape:export-filename="rect32.png"
       inkscape:export-xdpi="41.651745"
       inkscape:export-ydpi="41.651745" /><g
       id="g23"
       transform="translate(822.74567,61.993103)"><circle
         style="fill:#fafdfd;fill-opacity:1;fill-rule:evenodd;stroke:#fafdfd;stroke-width:191.886;stroke-dasharray:none;stroke-opacity:1"
         id="circle6"
         cx="9248.3105"
         cy="4463.915"
         r="769.19165" /><g
         id="g22"><path
           style="fill:none;stroke:#1d262e;stroke-width:95.8;stroke-linecap:butt;stroke-dasharray:none;stroke-opacity:1"
           d="m 9465.5112,4101.5729 c -326.6687,-300.1483 -647.3637,-39.9225 -623.2529,174.4628 18.2507,162.2792 435.0632,177.9962 489.3199,23.9708 26.3862,-74.9059 -71.2235,-114.0515 -192.7357,-140.0609 -121.5122,-26.0094 -268.519,-34.4104 -345.7036,-34.4104 -152.7594,0 -360.8728,125.3382 -53.1912,555.3353"
           id="path12"
           sodipodi:nodetypes="caazsc" /><path
           style="fill:none;stroke:#1d262e;stroke-width:95.8;stroke-linecap:butt;stroke-dasharray:none;stroke-opacity:1"
           d="m 8731.515,4017.8762 c 107.7361,-162.4093 327.3374,-238.1093 516.7951,-236.6233 153.9856,1.2078 325.0313,75.3509 416.9674,198.8854 87.6839,117.8208 77.7697,289.9978 67.5165,435.4002 -10.2531,145.4024 -202.9338,-91.7403 -188.8639,-176.8253 11.3089,-68.3887 82.2423,-92.6689 189.4757,-85.6921 174.2663,11.3381 266.1316,178.5496 72.2915,515.7221"
           id="path13"
           sodipodi:nodetypes="caazasc" /><path
           style="fill:none;stroke:#1d262e;stroke-width:95.8;stroke-linecap:butt;stroke-linejoin:bevel;stroke-dasharray:none;stroke-opacity:1"
           d="m 8676.4242,4715.9709 c 22.567,-19.3432 345.0184,-170.3659 467.9315,38.9461 49.2765,83.9142 -366.7264,152.8214 -366.7264,152.8214 0,0 455.9051,-464.2346 598.3278,-293.7111 124.6733,149.272 -346.3036,469.5784 -346.3036,469.5784"
           id="path14"
           sodipodi:nodetypes="cscac" /><path
           style="fill:none;stroke:#1d262e;stroke-width:95.8;stroke-linecap:butt;stroke-dasharray:none;stroke-opacity:1"
           d="m 9391.5324,4461.9154 c 0,0 448.5694,72.973 183.6624,429.5611 -63.7685,85.838 -439.6202,-486.1168 141.3154,-93.9983 198.1531,133.7489 -380.9133,325.7356 -380.9133,325.7356"
           id="path15"
           sodipodi:nodetypes="cssc" /><path
           style="fill:none;fill-opacity:1;stroke:#1d262e;stroke-width:95.8;stroke-linecap:butt;stroke-dasharray:none;stroke-opacity:1"
           d="m 8727.3259,4768.3266 c 0,0 8.5981,115.6234 104.0678,214.9736 47.7348,49.6751 213.6563,184.6672 416.9164,163.2775"
           id="path16"
           sodipodi:nodetypes="csc" /></g></g></g></svg>
